/* XPM */
static char *close_pressed[] = {
/* columns rows colors chars-per-pixel */
"34 34 33 1 ",
"  c #021C18",
". c #314643",
"X c #324744",
"o c #6D7E7B",
"O c #73827F",
"+ c #728180",
"@ c #B9C1C0",
"# c #BAC3C2",
"$ c #BBC4C2",
"% c #BCC5C3",
"& c #BDC6C4",
"* c #C1CAC8",
"= c #C4CCCA",
"- c #C5CDCB",
"; c #C6CECD",
": c #C6CFCD",
"> c #C7CFCE",
", c #CBD2D0",
"< c #CBD2D1",
"1 c #CCD3D1",
"2 c #CCD4D2",
"3 c #CED6D4",
"4 c #CFD6D5",
"5 c #CFD7D5",
"6 c #D0D7D6",
"7 c #D1D7D6",
"8 c #D3DAD9",
"9 c #D4DBDA",
"0 c #D7DDDC",
"q c #D7DEDC",
"w c #D8DDDC",
"e c #D8DEDD",
"r c #DBE1E0",
/* pixels */
"rrrrrrrrrrre5:*&$$&*:5errrrrrrrrrr",
"rrrrrrrrr8=$##########$-8rrrrrrrrr",
"rrrrrrrq=################-qrrrrrrr",
"rrrrrr6%##################%6rrrrrr",
"rrrrr1######################<rrrrr",
"rrrr,########################1rrrr",
"rrr6##########################6rrr",
"rrq%##########################%0rr",
"rr=############################-rr",
"r9##############################8r",
"r=##############################-r",
"e$##############################$e",
"3############@######@############4",
":###########@.+####+.@###########;",
"*############O o##O o############*",
"&#############O oO o#############&",
"$##############+  +##############$",
"$##############+  +##############$",
"&#############O oO o#############&",
"*############O o##O o############*",
";###########@X+####+.@###########>",
"5############@######@############4",
"e$##############################$e",
"r-##############################-r",
"r9##############################8r",
"rr=############################-rr",
"rrq%##########################%wrr",
"rrr6##########################7rrr",
"rrrr1########################1rrrr",
"rrrrr2######################<rrrrr",
"rrrrrr6%##################%7rrrrrr",
"rrrrrrr0-################-wrrrrrrr",
"rrrrrrrrr8-$##########$-9rrrrrrrrr",
"rrrrrrrrrrre4;*&$$&*;4errrrrrrrrrr"
};
