/* XPM */
static char *close_prelight[] = {
/* columns rows colors chars-per-pixel */
"34 34 26 1 ",
"  c #021C18",
". c #344946",
"X c #354A46",
"o c #748481",
"O c #798786",
"+ c #7A8886",
"@ c #C4CBCA",
"# c #C6CDCC",
"$ c #C6CECD",
"% c #C7CFCE",
"& c #CAD1D0",
"* c #CCD2D1",
"= c #CCD3D2",
"- c #CDD4D3",
"; c #CED5D4",
": c #D0D7D6",
"> c #D1D7D6",
", c #D2D8D7",
"< c #D2D9D8",
"1 c #D3DAD9",
"2 c #D4DBDA",
"3 c #D6DCDB",
"4 c #D7DDDC",
"5 c #D8DEDD",
"6 c #D9DFDE",
"7 c #DBE1E0",
/* pixels */
"777777777776<-&%$$%&-1677777777777",
"7777777773=############=3777777777",
"77777775*################=57777777",
"7777771$##################$2777777",
"77777>######################:77777",
"7777>########################>7777",
"7771##########################2777",
"775$##########################$577",
"77*############################=77",
"73##############################37",
"7=##############################=7",
"6################################6",
"<############@######@############1",
"-###########@.O####O.@###########;",
"&############+ o##+ o############&",
"%#############+ o+ o#############%",
"$##############O  O##############$",
"$##############O  O##############$",
"%#############+ o+ o#############%",
"&############+ o##+ o############&",
"-###########@XO####O.@###########;",
"<############@######@############1",
"6################################6",
"7=##############################=7",
"74##############################37",
"77=############################=77",
"775$##########################$577",
"7772##########################2777",
"7777>########################>7777",
"77777,######################:77777",
"7777772$##################$2777777",
"77777775=################=57777777",
"7777777773=############=4777777777",
"7777777777761;&%$$%&;1677777777777"
};
