/* XPM */
static char *hide_pressed[] = {
/* columns rows colors chars-per-pixel */
"34 34 27 1 ",
"  c #001A16",
". c #BAC3C2",
"X c #BBC4C2",
"o c #BCC5C3",
"O c #BDC6C4",
"+ c #C1CAC8",
"@ c #C4CCCA",
"# c #C5CDCB",
"$ c #C6CECD",
"% c #C6CFCD",
"& c #C7CFCE",
"* c #CBD2D0",
"= c #CBD2D1",
"- c #CCD3D1",
"; c #CCD4D2",
": c #CED6D4",
"> c #CFD6D5",
", c #CFD7D5",
"< c #D0D7D6",
"1 c #D1D7D6",
"2 c #D3DAD9",
"3 c #D4DBDA",
"4 c #D7DDDC",
"5 c #D7DEDC",
"6 c #D8DDDC",
"7 c #D8DEDD",
"8 c #DBE1E0",
/* pixels */
"888888888887,%+OXXO+%,788888888888",
"8888888882@X..........X#2888888888",
"88888885@................#58888888",
"888888<o..................o<888888",
"88888-......................=88888",
"8888*........................-8888",
"888<..........................<888",
"885o..........................o488",
"88@............................#88",
"83..............................28",
"8@..............................#8",
"7X..............................X7",
":................................>",
"%................................$",
"+................................+",
"O................................O",
"X................................X",
"X................................X",
"O................................O",
"+............        ............+",
"$................................&",
",................................>",
"7X..............................X7",
"8#..............................#8",
"83..............................28",
"88@............................#88",
"885o..........................o688",
"888<..........................1888",
"8888-........................-8888",
"88888;......................=88888",
"888888<o..................o1888888",
"88888884#................#68888888",
"8888888882#X..........X#3888888888",
"888888888887>$+OXXO+$>788888888888"
};
