/* XPM */
static char *close_pressed[] = {
/* columns rows colors chars-per-pixel */
"34 34 34 1 ",
"  c #1F2121",
". c #222424",
"X c #232424",
"o c #222525",
"O c #232525",
"+ c #252828",
"@ c #262828",
"# c #262929",
"$ c #282B2B",
"% c #292B2B",
"& c #292C2C",
"* c #2A2C2C",
"= c #2A2D2D",
"- c #2C2F2F",
"; c #2D3030",
": c #2E3131",
"> c #313434",
", c #313535",
"< c #333636",
"1 c #333737",
"2 c #343737",
"3 c #363939",
"4 c #363A3A",
"5 c #3A3D3D",
"6 c #3B3E3E",
"7 c #3C3F3F",
"8 c #3C4040",
"9 c #3E4141",
"0 c #7D8484",
"q c #7E8585",
"w c #828A89",
"e c #B9C2C2",
"r c #BAC3C3",
"t c #E4F0EF",
/* pixels */
"           .=,457754,=.           ",
"         #27888888888871@         ",
"       O288888888888888882o       ",
"      &68888888888888888886$      ",
"     ;8888888888888888888888:     ",
"    :888888888888888888888888;    ",
"   &88888888888888888888888888$   ",
"  O6888888888888888888888888886.  ",
"  288888888888888888888888888881  ",
" @888888888888888888888888888888@ ",
" 28888888888888888888888888888881 ",
".78888888888888888888888888888887.",
"=88888888888898888889888888888888*",
",888888888889rq8888qr988888888888>",
"48888888888880tw880tw8888888888883",
"588888888888880tw0tw88888888888885",
"788888888888888qttq888888888888887",
"788888888888888qttq888888888888887",
"588888888888880tw0tw88888888888885",
"48888888888880tw880tw8888888888883",
">888888888889eq8888qr988888888888>",
"=88888888888898888889888888888888&",
".78888888888888888888888888888887.",
" 28888888888888888888888888888881 ",
" +888888888888888888888888888888@ ",
"  288888888888888888888888888881  ",
"  o6888888888888888888888888886X  ",
"   $88888888888888888888888888%   ",
"    ;888888888888888888888888;    ",
"     -8888888888888888888888:     ",
"      $68888888888888888886%      ",
"       .18888888888888888<X       ",
"         @17888888888871+         ",
"           .*>457753>*.           "
};
