/* XPM */
static char *maximize_prelight[] = {
/* columns rows colors chars-per-pixel */
"34 34 21 1 ",
"  c #1F2121",
". c #212323",
"X c #222424",
"o c #232525",
"O c #232626",
"+ c #242626",
"@ c #252828",
"# c #262828",
"$ c #262929",
"% c #272929",
"& c #282A2A",
"* c #292A2A",
"= c #292B2B",
"- c #2B2E2E",
"; c #2D2F2F",
": c #2D3030",
"> c #2F3131",
", c #313434",
"< c #323535",
"1 c #333636",
"2 c #E6F2F1",
/* pixels */
"           .%->,<<,>-%.           ",
"         +:111111111111:O         ",
"       X:1111111111111111:X       ",
"      #<111111111111111111<#      ",
"     *1111111111111111111111=     ",
"    =111111111111111111111111*    ",
"   #11111111111111111111111111#   ",
"  X<11111111111111111111111111<X  ",
"  :1111111111111111111111111111:  ",
" o111111111111111111111111111111O ",
" :111111111111111111111111111111: ",
".11111111111111111111111111111111.",
"%11111111111111111111111111111111$",
"-11111111111122222222111111111111-",
">11111111111121111112111111111111>",
",11111111111121111112111111111111,",
"<11111111111121111112111111111111<",
"<11111111111121111112111111111111<",
",11111111111121111112111111111111,",
">11111111111121111112111111111111>",
"-11111111111122222222111111111111-",
"%11111111111111111111111111111111$",
".11111111111111111111111111111111.",
" :111111111111111111111111111111; ",
" o111111111111111111111111111111O ",
"  :1111111111111111111111111111;  ",
"  X<11111111111111111111111111<X  ",
"   #11111111111111111111111111@   ",
"    *111111111111111111111111*    ",
"     &1111111111111111111111=     ",
"      #<111111111111111111<@      ",
"       X:1111111111111111;X       ",
"         o:111111111111;o         ",
"           .$->,<<,>-$.           "
};
