/* XPM */
static char *close_pressed[] = {
/* columns rows colors chars-per-pixel */
"34 26 38 1 ",
"  c #333636",
". c #333737",
"X c #363939",
"o c #383C3C",
"O c #393C3C",
"+ c #393D3C",
"@ c #3B3D3D",
"# c #393E3E",
"$ c #3B3E3E",
"% c #3A3F3E",
"& c #3B3F3E",
"* c #444949",
"= c #444A49",
"- c #454A49",
"; c #444B4A",
": c #474E4D",
"> c #484D4D",
", c #484E4D",
"< c #494E4E",
"1 c #4D5352",
"2 c #4D5353",
"3 c #4D5554",
"4 c #4E5554",
"5 c #525958",
"6 c #525959",
"7 c #525A59",
"8 c #535A59",
"9 c #555D5C",
"0 c #565D5C",
"q c #565E5D",
"w c #575F5E",
"e c #58605F",
"r c #849291",
"t c #849392",
"y c #879794",
"u c #ADC2BF",
"i c #ADC3C0",
"p c #CBE4E0",
/* pixels */
"            +=46qq64=O            ",
"          %4wwwwwwwwww4%          ",
"        .<wwwwwwwwwwwwww>.        ",
"       X4wwwwwwwwwwwwwwww4X       ",
"      .4wwwwwwwwwwwwwwwwww4.      ",
"      <wwwwwwwwwwwwwwwwwwww,      ",
"     @wwwwwwwwwwwwwwwwwwwwww%     ",
"     4wwwwwwwwwwwwwwwwwwwwww4     ",
"    owwwwwwwwewwwwwwewwwwwwwwO    ",
"    -wwwwwwweitwwwwtiewwwwwww;    ",
"    4wwwwwwwwrpywwrpywwwwwwww4    ",
"    8wwwwwwwwwrpyrpywwwwwwwww6    ",
"    0wwwwwwwwwwtpptwwwwwwwwww0    ",
"    9wwwwwwwwwwtpptwwwwwwwwww9    ",
"    7wwwwwwwwwrpyrpywwwwwwwww6    ",
"    4wwwwwwwwrpywwrpywwwwwwww3    ",
"    =wwwwwwweutwwwwtiewwwwwww*    ",
"    owwwwwwwwewwwwwwewwwwwwwwo    ",
"     4wwwwwwwwwwwwwwwwwwwwww3     ",
"     @wwwwwwwwwwwwwwwwwwwwww&     ",
"      >wwwwwwwwwwwwwwwwwwww:      ",
"       2wwwwwwwwwwwwwwwwww4.      ",
"       X4wwwwwwwwwwwwwwww4X       ",
"        .>wwwwwwwwwwwwww:.        ",
"          #1wwwwwwwwww4$          ",
"            o;460053*o            "
};
