/* XPM */
static char *close_pressed[] = {
/* columns rows colors chars-per-pixel */
"34 34 34 1 ",
"  c #2C2E2E",
". c #2E3030",
"X c #2F3131",
"o c #2F3232",
"O c #303232",
"+ c #323434",
"@ c #323535",
"# c #333535",
"$ c #353838",
"% c #363838",
"& c #373838",
"* c #363939",
"= c #373939",
"- c #383B3B",
"; c #393C3C",
": c #3A3D3D",
"> c #3D4040",
", c #3D4141",
"< c #3F4141",
"1 c #3F4242",
"2 c #404242",
"3 c #424545",
"4 c #424646",
"5 c #454949",
"6 c #464A4A",
"7 c #474A4A",
"8 c #474B4B",
"9 c #484C4C",
"0 c #848B8B",
"q c #848C8C",
"w c #89908F",
"e c #BCC5C5",
"r c #BDC6C6",
"t c #E4F0EF",
/* pixels */
"           .=,457754,=.           ",
"         @17888888888871+         ",
"       O188888888888888882o       ",
"      *68888888888888888886$      ",
"     ;8888888888888888888888:     ",
"    :888888888888888888888888;    ",
"   *88888888888888888888888888$   ",
"  O6888888888888888888888888886X  ",
"  188888888888888888888888888881  ",
" #888888888888888888888888888888+ ",
" 18888888888888888888888888888881 ",
".78888888888888888888888888888887.",
"*88888888888898888889888888888888&",
",888888888889rq8888qr988888888888>",
"48888888888880tw880tw8888888888883",
"588888888888880tw0tw88888888888885",
"788888888888888qttq888888888888887",
"788888888888888qttq888888888888887",
"588888888888880tw0tw88888888888885",
"48888888888880tw880tw8888888888883",
">888888888889eq8888qr988888888888>",
"=88888888888898888889888888888888%",
".78888888888888888888888888888887.",
" 28888888888888888888888888888881 ",
" @888888888888888888888888888888+ ",
"  188888888888888888888888888881  ",
"  o6888888888888888888888888886X  ",
"   $88888888888888888888888888$   ",
"    ;888888888888888888888888;    ",
"     -8888888888888888888888:     ",
"      $68888888888888888886$      ",
"       X18888888888888888<X       ",
"         +17888888888871@         ",
"           .&>457753>&.           "
};
