/* XPM */
static char *close_inactive[] = {
/* columns rows colors chars-per-pixel */
"34 26 21 1 ",
"  c #282B2B",
". c #292C2C",
"X c #292D2D",
"o c #2A2D2D",
"O c #2D3131",
"+ c #2E3232",
"@ c #2E3333",
"# c #2F3333",
"$ c #303434",
"% c #303535",
"& c #323535",
"* c #323636",
"= c #323737",
"- c #333838",
"; c #343939",
": c #5B6564",
"> c #5B6664",
", c #5E6967",
"< c #7F8F8D",
"1 c #808F8C",
"2 c #9AADAA",
/* pixels */
"            XO%&==&$OX            ",
"          o%----------%o          ",
"         #--------------#         ",
"       .%----------------$.       ",
"       %------------------$       ",
"      #--------------------@      ",
"     o----------------------o     ",
"     %----------------------$     ",
"    .--------;------;--------X    ",
"    O-------;<>----><;-------O    ",
"    $--------:2,--:2,--------$    ",
"    *---------:2,:2,---------&    ",
"    =---------->22>----------=    ",
"    =---------->22>----------=    ",
"    &---------:2,:2,---------&    ",
"    $--------:2,--:2,--------$    ",
"    O-------;1>----><;-------O    ",
"    .--------;------;--------.    ",
"     $----------------------$     ",
"     o----------------------o     ",
"      #--------------------+      ",
"       $------------------$       ",
"       .$----------------$.       ",
"         #--------------+         ",
"          o$----------$o          ",
"            .O$&==&$O.            "
};
