/* XPM */
static char *close_active[] = {
/* columns rows colors chars-per-pixel */
"34 26 28 1 ",
"  c #333636",
". c #343737",
"X c #353838",
"o c #353938",
"O c #353939",
"+ c #363939",
"@ c #363A39",
"# c #3A3E3D",
"$ c #3A3E3E",
"% c #3A3F3E",
"& c #3B403F",
"* c #3B4040",
"= c #3C4040",
"- c #3D4241",
"; c #3D4242",
": c #3E4342",
"> c #404544",
", c #404545",
"< c #404645",
"1 c #414746",
"2 c #424847",
"3 c #434948",
"4 c #778483",
"5 c #778583",
"6 c #7B8987",
"7 c #A7BDBA",
"8 c #A8BCB9",
"9 c #CBE4E0",
/* pixels */
"            o#:,11,:#X            ",
"          @:2222222222:@          ",
"         =22222222222222*         ",
"       .:2222222222222222:.       ",
"       :222222222222222222:       ",
"      =22222222222222222222&      ",
"     +2222222222222222222222@     ",
"     :2222222222222222222222:     ",
"    X222222223222222322222222X    ",
"    #222222237522225732222222%    ",
"    :222222224962249622222222:    ",
"    <222222222496496222222222,    ",
"    12222222222599522222222221    ",
"    12222222222599522222222221    ",
"    <222222222496496222222222,    ",
"    :222222224962249622222222:    ",
"    #222222238522225732222222$    ",
"    X222222223222222322222222X    ",
"     :2222222222222222222222:     ",
"     +2222222222222222222222@     ",
"      *22222222222222222222&      ",
"       ;222222222222222222:       ",
"       .:2222222222222222:.       ",
"         *22222222222222&         ",
"          O-2222222222:+          ",
"            X%:,11>:$X            "
};
