/* XPM */
static char *hide_prelight[] = {
/* columns rows colors chars-per-pixel */
"34 26 23 1 ",
"  c #333636",
". c #353838",
"X c #373A3A",
"o c #373C3A",
"O c #373C3C",
"+ c #393C3C",
"@ c #393E3C",
"# c #404545",
"$ c #404644",
"% c #404745",
"& c #434948",
"* c #434949",
"= c #454949",
"- c #474D4B",
"; c #474D4D",
": c #484F4D",
"> c #494F4D",
", c #4C5250",
"< c #4C5252",
"1 c #4C5452",
"2 c #4E5654",
"3 c #505856",
"4 c #CCE6E2",
/* pixels */
"            o$><22<>$X            ",
"          @:3333333333>@          ",
"         =33333333333333*         ",
"       .:3333333333333333>.       ",
"       >333333333333333333>       ",
"      =33333333333333333333&      ",
"     +3333333333333333333333@     ",
"     >3333333333333333333333>     ",
"    X333333333333333333333333X    ",
"    $333333333333333333333333%    ",
"    >333333333333333333333333>    ",
"    1333333333333333333333333<    ",
"    23333333333333333333333332    ",
"    23333333333333333333333332    ",
"    1333333333333333333333333<    ",
"    >333333334444444433333333>    ",
"    $333333333333333333333333#    ",
"    X333333333333333333333333X    ",
"     >3333333333333333333333>     ",
"     +3333333333333333333333@     ",
"      *33333333333333333333&      ",
"       ;333333333333333333>       ",
"       .>3333333333333333>.       ",
"         *33333333333333&         ",
"          O-3333333333>+          ",
"            X%><22,>#X            "
};
