/* XPM */
static char *hide_pressed[] = {
/* columns rows colors chars-per-pixel */
"34 34 28 1 ",
"  c #1F2121",
". c #222424",
"X c #232424",
"o c #222525",
"O c #232525",
"+ c #252828",
"@ c #262828",
"# c #262929",
"$ c #282B2B",
"% c #292B2B",
"& c #292C2C",
"* c #2A2C2C",
"= c #2A2D2D",
"- c #2C2F2F",
"; c #2D3030",
": c #2E3131",
"> c #313434",
", c #313535",
"< c #333636",
"1 c #333737",
"2 c #343737",
"3 c #363939",
"4 c #363A3A",
"5 c #3A3D3D",
"6 c #3B3E3E",
"7 c #3C3F3F",
"8 c #3C4040",
"9 c #E6F2F1",
/* pixels */
"           .=,457754,=.           ",
"         #27888888888871@         ",
"       O288888888888888882o       ",
"      &68888888888888888886$      ",
"     ;8888888888888888888888:     ",
"    :888888888888888888888888;    ",
"   &88888888888888888888888888$   ",
"  O6888888888888888888888888886.  ",
"  288888888888888888888888888881  ",
" @888888888888888888888888888888@ ",
" 28888888888888888888888888888881 ",
".78888888888888888888888888888887.",
"=88888888888888888888888888888888*",
",88888888888888888888888888888888>",
"4888888888888888888888888888888883",
"5888888888888888888888888888888885",
"7888888888888888888888888888888887",
"7888888888888888888888888888888887",
"5888888888888888888888888888888885",
"4888888888888999999998888888888883",
">88888888888888888888888888888888>",
"=88888888888888888888888888888888&",
".78888888888888888888888888888887.",
" 28888888888888888888888888888881 ",
" +888888888888888888888888888888@ ",
"  288888888888888888888888888881  ",
"  o6888888888888888888888888886X  ",
"   $88888888888888888888888888%   ",
"    ;888888888888888888888888;    ",
"     -8888888888888888888888:     ",
"      $68888888888888888886%      ",
"       .18888888888888888<X       ",
"         @17888888888871+         ",
"           .*>457753>*.           "
};
