/* XPM */
static char *maximize_pressed[] = {
/* columns rows colors chars-per-pixel */
"34 34 28 1 ",
"  c #2C2E2E",
". c #2E3030",
"X c #2F3131",
"o c #2F3232",
"O c #303232",
"+ c #323434",
"@ c #323535",
"# c #333535",
"$ c #353838",
"% c #363838",
"& c #373838",
"* c #363939",
"= c #373939",
"- c #383B3B",
"; c #393C3C",
": c #3A3D3D",
"> c #3D4040",
", c #3D4141",
"< c #3F4141",
"1 c #3F4242",
"2 c #404242",
"3 c #424545",
"4 c #424646",
"5 c #454949",
"6 c #464A4A",
"7 c #474A4A",
"8 c #474B4B",
"9 c #E6F2F1",
/* pixels */
"           .=,457754,=.           ",
"         @17888888888871+         ",
"       O188888888888888882o       ",
"      *68888888888888888886$      ",
"     ;8888888888888888888888:     ",
"    :888888888888888888888888;    ",
"   *88888888888888888888888888$   ",
"  O6888888888888888888888888886X  ",
"  188888888888888888888888888881  ",
" #888888888888888888888888888888+ ",
" 18888888888888888888888888888881 ",
".78888888888888888888888888888887.",
"*88888888888888888888888888888888&",
",88888888888899999999888888888888>",
"4888888888888988888898888888888883",
"5888888888888988888898888888888885",
"7888888888888988888898888888888887",
"7888888888888988888898888888888887",
"5888888888888988888898888888888885",
"4888888888888988888898888888888883",
">88888888888899999999888888888888>",
"=88888888888888888888888888888888%",
".78888888888888888888888888888887.",
" 28888888888888888888888888888881 ",
" @888888888888888888888888888888+ ",
"  188888888888888888888888888881  ",
"  o6888888888888888888888888886X  ",
"   $88888888888888888888888888$   ",
"    ;888888888888888888888888;    ",
"     -8888888888888888888888:     ",
"      $68888888888888888886$      ",
"       X18888888888888888<X       ",
"         +17888888888871@         ",
"           .&>457753>&.           "
};
