/* XPM */
static char *maximize_active[] = {
/* columns rows colors chars-per-pixel */
"34 26 22 1 ",
"  c #333636",
". c #343737",
"X c #353838",
"o c #353938",
"O c #353939",
"+ c #363939",
"@ c #363A39",
"# c #3A3E3D",
"$ c #3A3E3E",
"% c #3A3F3E",
"& c #3B403F",
"* c #3B4040",
"= c #3C4040",
"- c #3D4241",
"; c #3D4242",
": c #3E4342",
"> c #404544",
", c #404545",
"< c #404645",
"1 c #414746",
"2 c #424847",
"3 c #CCE6E2",
/* pixels */
"            o#:,11,:#X            ",
"          @:2222222222:@          ",
"         =22222222222222*         ",
"       .:2222222222222222:.       ",
"       :222222222222222222:       ",
"      =22222222222222222222&      ",
"     +2222222222222222222222@     ",
"     :2222222222222222222222:     ",
"    X222222222222222222222222X    ",
"    #222222223333333322222222%    ",
"    :222222223222222322222222:    ",
"    <222222223222222322222222,    ",
"    12222222232222223222222221    ",
"    12222222232222223222222221    ",
"    <222222223222222322222222,    ",
"    :222222223222222322222222:    ",
"    #222222223333333322222222$    ",
"    X222222222222222222222222X    ",
"     :2222222222222222222222:     ",
"     +2222222222222222222222@     ",
"      *22222222222222222222&      ",
"       ;222222222222222222:       ",
"       .:2222222222222222:.       ",
"         *22222222222222&         ",
"          O-2222222222:+          ",
"            X%:,11>:$X            "
};
