/* XPM */
static char *maximize_inactive[] = {
/* columns rows colors chars-per-pixel */
"34 26 15 1 ",
"  c #282B2B",
". c #292C2C",
"X c #292D2D",
"o c #2A2D2D",
"O c #2D3131",
"+ c #2E3232",
"@ c #2E3333",
"# c #2F3333",
"$ c #303434",
"% c #303535",
"& c #323535",
"* c #323636",
"= c #323737",
"- c #333838",
"; c #9BAEAB",
/* pixels */
"            XO%&==&$OX            ",
"          o%----------%o          ",
"         #--------------#         ",
"       .%----------------$.       ",
"       %------------------$       ",
"      #--------------------@      ",
"     o----------------------o     ",
"     %----------------------$     ",
"    .------------------------X    ",
"    O--------;;;;;;;;--------O    ",
"    $--------;------;--------$    ",
"    *--------;------;--------&    ",
"    =--------;------;--------=    ",
"    =--------;------;--------=    ",
"    &--------;------;--------&    ",
"    $--------;------;--------$    ",
"    O--------;;;;;;;;--------O    ",
"    .------------------------.    ",
"     $----------------------$     ",
"     o----------------------o     ",
"      #--------------------+      ",
"       $------------------$       ",
"       .$----------------$.       ",
"         #--------------+         ",
"          o$----------$o          ",
"            .O$&==&$O.            "
};
