/* XPM */
static char *top_right_inactive[] = {
/* columns rows colors chars-per-pixel */
"8 42 6 1 ",
"  c None",
". c #232626",
"X c #222726",
"o c #232726",
"O c #222826",
"+ c #232826",
/* pixels */
"ooXO    ",
"oooooX  ",
"oooooo+ ",
"ooooooo ",
"ooooooo.",
"oooooooo",
"oooooooo",
"oooooooo",
"oooooooo",
"oooooooo",
"oooooooo",
"oooooooo",
"oooooooo",
"oooooooo",
"oooooooo",
"oooooooo",
"oooooooo",
"oooooooo",
"oooooooo",
"oooooooo",
"oooooooo",
"oooooooo",
"oooooooo",
"oooooooo",
"oooooooo",
"oooooooo",
"oooooooo",
"oooooooo",
"oooooooo",
"oooooooo",
"oooooooo",
"oooooooo",
"oooooooo",
"oooooooo",
"oooooooo",
"oooooooo",
"oooooooo",
"oooooooo",
"oooooooo",
"oooooooo",
"oooooooo",
"oooooooo"
};
