/* XPM */
static char *top_right_active[] = {
/* columns rows colors chars-per-pixel */
"8 38 5 1 ",
"  c None",
". c #323636",
"X c #333636",
"o c #323737",
"O c #343535",
/* pixels */
"XXO     ",
"XXXXX   ",
"XXXXXo  ",
"XXXXXXX ",
"XXXXXXX ",
"XXXXXXX.",
"XXXXXXXX",
"XXXXXXXX",
"XXXXXXXX",
"XXXXXXXX",
"XXXXXXXX",
"XXXXXXXX",
"XXXXXXXX",
"XXXXXXXX",
"XXXXXXXX",
"XXXXXXXX",
"XXXXXXXX",
"XXXXXXXX",
"XXXXXXXX",
"XXXXXXXX",
"XXXXXXXX",
"XXXXXXXX",
"XXXXXXXX",
"XXXXXXXX",
"XXXXXXXX",
"XXXXXXXX",
"XXXXXXXX",
"XXXXXXXX",
"XXXXXXXX",
"XXXXXXXX",
"XXXXXXXX",
"XXXXXXXX",
"XXXXXXXX",
"XXXXXXXX",
"XXXXXXXX",
"XXXXXXXX",
"XXXXXXXX",
"XXXXXXXX"
};
