/* XPM */
static char *close_prelight[] = {
/* columns rows colors chars-per-pixel */
"34 26 63 1 ",
"  c #045E52",
". c #045F53",
"X c #046155",
"o c #056457",
"O c #056558",
"+ c #056659",
"@ c #0E6458",
"# c #0F6558",
"$ c #056A5C",
"% c #056A5D",
"& c #056B5D",
"* c #056C5E",
"= c #056D5F",
"- c #106559",
"; c #10655A",
": c #237369",
"> c #24736A",
", c #247469",
"< c #25746A",
"1 c #317D73",
"2 c #327E73",
"3 c #337F74",
"4 c #378A7F",
"5 c #398B80",
"6 c #398B81",
"7 c #3A8C81",
"8 c #3B8C82",
"9 c #3E8E84",
"0 c #448B82",
"q c #448C82",
"w c #458C83",
"e c #468D83",
"r c #478D83",
"t c #408F85",
"y c #488D84",
"u c #409085",
"i c #439187",
"p c #449187",
"a c #449288",
"s c #4A958B",
"d c #51958C",
"f c #52958D",
"g c #53968E",
"h c #569C93",
"j c #579D94",
"k c #5CA097",
"l c #5DA097",
"z c #61A097",
"x c #63A199",
"c c #6AA79F",
"v c #6BA9A0",
"b c #6CA9A0",
"n c #6DA9A0",
"m c #6CA9A1",
"M c #6DA9A1",
"N c #6EA9A1",
"B c #6DAAA1",
"V c #6EAAA2",
"C c #84B7B0",
"Z c #85B7B1",
"A c #89BAB4",
"S c #CAE0DD",
"D c #FDFEFD",
/* pixels */
"============%OX.  .XO%============",
"==========$X;2gzVVzf2;X$==========",
"=========o-rBksu66uskNy#o=========",
"=======*X<ch7444444448hc,X*=======",
"=======X3mi444444444444pm2X=======",
"======o>v9444444444444449m,o======",
"=====$-ci4444444444444444pc#$=====",
"=====Xrh444444444444444444jwX=====",
"====%;B74444454444445444448n-%====",
"====O3k444445SZ4444ZS544444l2+====",
"====Xfs444444CDA44CDA444444sfX====",
"====.xt4444444CDACDA4444444uz.====",
"==== M744444444ZDDZ444444447M ====",
"==== m744444444ZDDZ444444447m ====",
"====.zt4444444CDACDA4444444uz.====",
"====Xfs444444CDA44CDA444444sdX====",
"====O2k444445SZ4444ZS544444l1+====",
"====%;n84444454444445444448n-&====",
"=====Xrh444444444444444444j0X=====",
"=====$#cp4444444444444444ac#$=====",
"======o:b9444444444444449m,o======",
"=======X2bp444444444444ab1X=======",
"=======*X,cj8444444448jc,X*=======",
"=========o@qnlsu77uslne#o=========",
"==========$X-1fzMMzf1-X$==========",
"============%+X.  .X+&============"
};
