/* XPM */
static char *hide_pressed[] = {
/* columns rows colors chars-per-pixel */
"34 26 36 1 ",
"  c #045E52",
". c #045F53",
"X c #046155",
"o c #056457",
"O c #0A6257",
"+ c #0C6357",
"@ c #056558",
"# c #056659",
"$ c #0D6358",
"% c #056A5C",
"& c #056A5D",
"* c #056B5D",
"= c #056C5E",
"- c #056D5F",
"; c #1A6E63",
": c #1B6F63",
"> c #23756A",
", c #25766B",
"< c #25776C",
"1 c #318176",
"2 c #328177",
"3 c #338278",
"4 c #348378",
"5 c #368378",
"6 c #3C897F",
"7 c #3D897F",
"8 c #479188",
"9 c #489189",
"0 c #50988E",
"q c #51998F",
"w c #539A90",
"e c #539B91",
"r c #559A91",
"t c #549B91",
"y c #559B92",
"u c white",
/* pixels */
"------------&@X.  .X@&------------",
"----------%X$,78qq86,$X%----------",
"---------o+4eyyyyyyyyr5+o---------",
"-------=X:0yyyyyyyyyyyy0:X=-------",
"-------X<yyyyyyyyyyyyyyyy,X-------",
"------o;tyyyyyyyyyyyyyyyyy:o------",
"-----%+0yyyyyyyyyyyyyyyyyy0+%-----",
"-----X4yyyyyyyyyyyyyyyyyyyy3X-----",
"----&$tyyyyyyyyyyyyyyyyyyyyw+&----",
"----@<yyyyyyyyyyyyyyyyyyyyyy,#----",
"----X6yyyyyyyyyyyyyyyyyyyyyy6X----",
"----.9yyyyyyyyyyyyyyyyyyyyyy8.----",
"---- qyyyyyyyyyyyyyyyyyyyyyyq ----",
"---- 0yyyyyyyyyyyyyyyyyyyyyy0 ----",
"----.8yyyyyyyyyyyyyyyyyyyyyy8.----",
"----X6yyyyyyyuuuuuuuuyyyyyyy6X----",
"----@,yyyyyyyyyyyyyyyyyyyyyy>#----",
"----&$wyyyyyyyyyyyyyyyyyyyyw+*----",
"-----X4yyyyyyyyyyyyyyyyyyyy2X-----",
"-----%+0yyyyyyyyyyyyyyyyyy0+%-----",
"------o;tyyyyyyyyyyyyyyyyy:o------",
"-------X,tyyyyyyyyyyyyyyt,X-------",
"-------=X:0yyyyyyyyyyyy0:X=-------",
"---------oO1wyyyyyyyyw4+o---------",
"----------%X+,68qq86>+X%----------",
"------------&#X.  .X#*------------"
};
