/* XPM */
static char *hide_inactive[] = {
/* columns rows colors chars-per-pixel */
"34 26 18 1 ",
"  c #80B4AD",
". c #81B4AD",
"X c #81B4AE",
"o c #81B5AE",
"O c #81B5AF",
"+ c #82B5AE",
"@ c #83B6B0",
"# c #84B6B0",
"$ c #84B7B0",
"% c #84B7B1",
"& c #85B7B1",
"* c #86B7B1",
"= c #86B8B1",
"- c #86B8B2",
"; c #87B8B2",
": c #87B9B3",
"> c #88B9B3",
", c #D9E8E6",
/* pixels */
"            o$-;>>;-$.            ",
"          O=>>>>>>>>>>-O          ",
"         &>>>>>>>>>>>>>>&         ",
"        =>>>>>>>>>>>>>>>>-        ",
"       ->>>>>>>>>>>>>>>>>>-       ",
"      &>>>>>>>>>>>>>>>>>>>>&      ",
"     X>>>>>>>>>>>>>>>>>>>>>>O     ",
"     ->>>>>>>>>>>>>>>>>>>>>>-     ",
"    .>>>>>>>>>>>>>>>>>>>>>>>>.    ",
"    $>>>>>>>>>>>>>>>>>>>>>>>>%    ",
"    ->>>>>>>>>>>>>>>>>>>>>>>>-    ",
"    :>>>>>>>>>>>>>>>>>>>>>>>>;    ",
"    >>>>>>>>>>>>>>>>>>>>>>>>>>    ",
"    >>>>>>>>>>>>>>>>>>>>>>>>>>    ",
"    :>>>>>>>>>>>>>>>>>>>>>>>>;    ",
"    ->>>>>>>>,,,,,,,,>>>>>>>>-    ",
"    $>>>>>>>>>>>>>>>>>>>>>>>>@    ",
"    .>>>>>>>>>>>>>>>>>>>>>>>>.    ",
"     ->>>>>>>>>>>>>>>>>>>>>>-     ",
"     X>>>>>>>>>>>>>>>>>>>>>>O     ",
"      &>>>>>>>>>>>>>>>>>>>>&      ",
"       *>>>>>>>>>>>>>>>>>>-       ",
"        ->>>>>>>>>>>>>>>>-        ",
"         &>>>>>>>>>>>>>>&         ",
"          +*>>>>>>>>>>-X          ",
"            .%-;>>;-#.            "
};
