/* XPM */
static char *maximize_inactive[] = {
/* columns rows colors chars-per-pixel */
"34 26 40 1 ",
"  c #6A9690",
". c #6B9992",
"X c #6C9992",
"o c #6C9993",
"O c #6D9993",
"+ c #6D9C96",
"@ c #729F99",
"# c #729F9A",
"$ c #73A099",
"% c #70A09A",
"& c #71A19A",
"* c #73A09A",
"= c #72A39C",
"- c #73A39D",
"; c #77A49C",
": c #77A49E",
"> c #78A49E",
", c #77AAA3",
"< c #78AAA3",
"1 c #78ABA4",
"2 c #7DAAA5",
"3 c #7EAAA4",
"4 c #7FAAA5",
"5 c #7EABA5",
"6 c #7FABA6",
"7 c #79ACA5",
"8 c #7AAEA7",
"9 c #7BAEA7",
"0 c #7BAFA8",
"q c #82AEA8",
"w c #82AFA8",
"e c #83AFA8",
"r c #87B4AE",
"t c #88B4AD",
"y c #8BB8B1",
"u c #8BB8B2",
"i c #8CB8B2",
"p c #8CB9B2",
"a c #8DBAB3",
"s c #D7E7E5",
/* pixels */
"0000000000001=+o  o+=1000000000000",
"0000000000,+X>wruure>X+<0000000000",
"000000009%o5aaaaaaaaap6o%900000000",
"00000008+*paaaaaaaaaaaai$+80000000",
"0000009+:aaaaaaaaaaaaaaaa>+9000000",
"000000%#aaaaaaaaaaaaaaaaaa*&000000",
"00000,opaaaaaaaaaaaaaaaaaayX<00000",
"00000+5aaaaaaaaaaaaaaaaaaaa4+00000",
"00001XaaaaaaaaaaaaaaaaaaaaapO10000",
"0000=:aaaaaaassssssssaaaaaaa>-0000",
"0000+eaaaaaaasaaaaaasaaaaaaaq+0000",
"0000otaaaaaaasaaaaaasaaaaaaaro0000",
"0000 uaaaaaaasaaaaaasaaaaaaau 0000",
"0000 paaaaaaasaaaaaasaaaaaaai 0000",
"0000oraaaaaaasaaaaaasaaaaaaaro0000",
"0000+eaaaaaaasaaaaaasaaaaaaaq+0000",
"0000=>aaaaaaassssssssaaaaaaa;-0000",
"00001Xpaaaaaaaaaaaaaaaaaaaapo70000",
"00000+5aaaaaaaaaaaaaaaaaaaa3+00000",
"00000<XiaaaaaaaaaaaaaaaaaayX<00000",
"000000%#aaaaaaaaaaaaaaaaaa$&000000",
"0000009+>aaaaaaaaaaaaaaaa>+9000000",
"00000008+$iaaaaaaaaaaaay@+80000000",
"000000009%.2paaaaaaaap5X&900000000",
"0000000000<+O>eruurq;o+<0000000000",
"0000000000001-+o  o+-7000000000000"
};
