/* XPM */
static char *maximize_inactive[] = {
/* columns rows colors chars-per-pixel */
"34 26 17 1 ",
"  c #7AB1A9",
". c #7BB1A9",
"X c #7BB2AA",
"o c #7CB2AA",
"O c #7CB3AB",
"+ c #7EB3AC",
"@ c #7FB3AC",
"# c #7EB4AC",
"$ c #7FB4AD",
"% c #80B5AD",
"& c #81B5AD",
"* c #82B5AE",
"= c #80B6AE",
"- c #82B6AF",
"; c #83B6AF",
": c #83B7AF",
"> c #D7E8E5",
/* pixels */
"            X#=*;;*=#.            ",
"          O&::::::::::=O          ",
"         $::::::::::::::$         ",
"        &::::::::::::::::=        ",
"       =::::::::::::::::::=       ",
"      $::::::::::::::::::::$      ",
"     o::::::::::::::::::::::O     ",
"     =::::::::::::::::::::::=     ",
"    .::::::::::::::::::::::::.    ",
"    #::::::::>>>>>>>>::::::::$    ",
"    =::::::::>::::::>::::::::=    ",
"    -::::::::>::::::>::::::::*    ",
"    ;::::::::>::::::>::::::::;    ",
"    ;::::::::>::::::>::::::::;    ",
"    -::::::::>::::::>::::::::*    ",
"    =::::::::>::::::>::::::::=    ",
"    #::::::::>>>>>>>>::::::::+    ",
"    .::::::::::::::::::::::::.    ",
"     =::::::::::::::::::::::=     ",
"     o::::::::::::::::::::::O     ",
"      $::::::::::::::::::::$      ",
"       %::::::::::::::::::=       ",
"        =::::::::::::::::=        ",
"         $::::::::::::::$         ",
"          o%::::::::::=o          ",
"            .$=*;;*=@.            "
};
