/* XPM */
static char *maximize_prelight[] = {
/* columns rows colors chars-per-pixel */
"34 26 58 1 ",
"  c #045E52",
". c #045F53",
"X c #046155",
"o c #056457",
"O c #056558",
"+ c #056659",
"@ c #0E6458",
"# c #0F6558",
"$ c #056A5C",
"% c #056A5D",
"& c #056B5D",
"* c #056C5E",
"= c #056D5F",
"- c #106559",
"; c #10655A",
": c #237369",
"> c #24736A",
", c #247469",
"< c #25746A",
"1 c #317D73",
"2 c #327E73",
"3 c #337F74",
"4 c #378A7F",
"5 c #398B81",
"6 c #3A8C81",
"7 c #3B8C82",
"8 c #3E8E84",
"9 c #448B82",
"0 c #448C82",
"q c #458C83",
"w c #468D83",
"e c #478D83",
"r c #408F85",
"t c #488D84",
"y c #409085",
"u c #439187",
"i c #449187",
"p c #449288",
"a c #4A958B",
"s c #51958C",
"d c #52958D",
"f c #53968E",
"g c #569C93",
"h c #579D94",
"j c #5CA097",
"k c #5DA097",
"l c #61A097",
"z c #63A199",
"x c #6AA79F",
"c c #6BA9A0",
"v c #6CA9A0",
"b c #6DA9A0",
"n c #6CA9A1",
"m c #6DA9A1",
"M c #6EA9A1",
"N c #6DAAA1",
"B c #6EAAA2",
"V c white",
/* pixels */
"============%OX.  .XO%============",
"==========$X;2flBBld2;X$==========",
"=========o-eNjay55yajMt#o=========",
"=======*X<xg6444444447gx,X*=======",
"=======X3nu444444444444in2X=======",
"======o>c8444444444444448n,o======",
"=====$-xu4444444444444444ix#$=====",
"=====Xeg444444444444444444hqX=====",
"====%;N64444444444444444447b-%====",
"====O3j444444VVVVVVVV444444k2+====",
"====Xda444444V444444V444444adX====",
"====.zr444444V444444V444444yl.====",
"==== m6444444V444444V4444446m ====",
"==== n6444444V444444V4444446n ====",
"====.lr444444V444444V444444yl.====",
"====Xda444444V444444V444444asX====",
"====O2j444444VVVVVVVV444444k1+====",
"====%;b74444444444444444447b-&====",
"=====Xeg444444444444444444h9X=====",
"=====$#xi4444444444444444px#$=====",
"======o:v8444444444444448n,o======",
"=======X2vi444444444444pv1X=======",
"=======*X,xh7444444447hx,X*=======",
"=========o@0bkay66yakbw#o=========",
"==========$X-1dlmmld1-X$==========",
"============%+X.  .X+&============"
};
