/* XPM */
static char *top_left_active[] = {
/* columns rows colors chars-per-pixel */
"8 38 3 1 ",
"  c None",
". c #056D5F",
"X c #056E60",
/* pixels */
"     ...",
"   .....",
"  ......",
" .......",
" .......",
"X.......",
"........",
"........",
"........",
"........",
"........",
"........",
"........",
"........",
"........",
"........",
"........",
"........",
"........",
"........",
"........",
"........",
"........",
"........",
"........",
"........",
"........",
"........",
"........",
"........",
"........",
"........",
"........",
"........",
"........",
"........",
"........",
"........"
};
