/* XPM */
static char *maximize_prelight[] = {
/* columns rows colors chars-per-pixel */
"34 34 20 1 ",
"  c #056D5F",
". c #076E60",
"X c #086F61",
"o c #0A7062",
"O c #0B7063",
"+ c #0D7264",
"@ c #0E7265",
"# c #0F7365",
"$ c #107366",
"% c #117467",
"& c #127467",
"* c #147668",
"= c #157669",
"- c #16776A",
"; c #17776A",
": c #19786C",
"> c #1C7A6D",
", c #1D7B6E",
"< c #1E7B6F",
"1 c white",
/* pixels */
"           .#=:>,,>:=@.           ",
"         O-<<<<<<<<<<<<-O         ",
"       X;<<<<<<<<<<<<<<<<-X       ",
"      @,<<<<<<<<<<<<<<<<<<,+      ",
"     %<<<<<<<<<<<<<<<<<<<<<<&     ",
"    %<<<<<<<<<<<<<<<<<<<<<<<<%    ",
"   @<<<<<<<<<<<<<<<<<<<<<<<<<<+   ",
"  X,<<<<<<<<<<<<<<<<<<<<<<<<<<,X  ",
"  ;<<<<<<<<<<<<<<<<<<<<<<<<<<<<-  ",
" O<<<<<<<<<<<<<<<<<<<<<<<<<<<<<<O ",
" -<<<<<<<<<<<<<<<<<<<<<<<<<<<<<<- ",
".<<<<<<<<<<<<<<<<<<<<<<<<<<<<<<<<.",
"#<<<<<<<<<<<<<<<<<<<<<<<<<<<<<<<<@",
"=<<<<<<<<<<<<11111111<<<<<<<<<<<<*",
":<<<<<<<<<<<<1<<<<<<1<<<<<<<<<<<<:",
"><<<<<<<<<<<<1<<<<<<1<<<<<<<<<<<<>",
",<<<<<<<<<<<<1<<<<<<1<<<<<<<<<<<<,",
",<<<<<<<<<<<<1<<<<<<1<<<<<<<<<<<<,",
"><<<<<<<<<<<<1<<<<<<1<<<<<<<<<<<<>",
":<<<<<<<<<<<<1<<<<<<1<<<<<<<<<<<<:",
"=<<<<<<<<<<<<11111111<<<<<<<<<<<<*",
"#<<<<<<<<<<<<<<<<<<<<<<<<<<<<<<<<@",
".<<<<<<<<<<<<<<<<<<<<<<<<<<<<<<<<.",
" -<<<<<<<<<<<<<<<<<<<<<<<<<<<<<<- ",
" o<<<<<<<<<<<<<<<<<<<<<<<<<<<<<<O ",
"  -<<<<<<<<<<<<<<<<<<<<<<<<<<<<-  ",
"  X,<<<<<<<<<<<<<<<<<<<<<<<<<<,X  ",
"   +<<<<<<<<<<<<<<<<<<<<<<<<<<+   ",
"    %<<<<<<<<<<<<<<<<<<<<<<<<%    ",
"     $<<<<<<<<<<<<<<<<<<<<<<&     ",
"      +,<<<<<<<<<<<<<<<<<<,+      ",
"       X-<<<<<<<<<<<<<<<<-X       ",
"         O-<<<<<<<<<<<<-o         ",
"           .@*:>,,>:*@.           "
};
