/* XPM */
static char *close_inactive[] = {
/* columns rows colors chars-per-pixel */
"34 26 22 1 ",
"  c #496F6A",
". c #6E8C89",
"X c #6F8D89",
"o c #A0B4B2",
"O c #A4B7B4",
"+ c #A4B8B5",
"@ c #DDE5E4",
"# c #DEE6E5",
"$ c #DFE6E5",
"% c #DFE7E6",
"& c #E0E8E7",
"* c #E0E9E8",
"= c #E1E9E8",
"- c #E2EAE9",
"; c #E5EDEC",
": c #E6EEED",
"> c #E7EEEE",
", c #EAF1F0",
"< c #EBF1F0",
"1 c #EBF2F1",
"2 c #ECF3F2",
"3 c #EEF4F3",
/* pixels */
"3333333333331:-&%%&-:<333333333333",
"3333333333,=##########-,3333333333",
"333333333;##############;333333333",
"33333332=################-23333333",
"3333333-##################-3333333",
"333333;####################;333333",
"33333,######################,33333",
"33333-######################-33333",
"3333<########@######@########<3333",
"3333:#######@.O####O.@#######>3333",
"3333-########+ o##+ o########-3333",
"3333*#########+ o+ o#########&3333",
"3333%##########O  O##########%3333",
"3333$##########O  O##########$3333",
"3333*#########+ o+ o#########&3333",
"3333-########+ o##+ o########-3333",
"3333:#######@XO####O.@#######>3333",
"3333<########@######@########<3333",
"33333-######################-33333",
"33333,######################,33333",
"333333;####################;333333",
"3333333-##################-3333333",
"33333332-################-23333333",
"333333333;##############;333333333",
"33333333331-##########-,3333333333",
"333333333333<>-&%%&-><333333333333"
};
