/* XPM */
static char *hide_inactive[] = {
/* columns rows colors chars-per-pixel */
"34 26 16 1 ",
"  c #476D68",
". c #DEE6E5",
"X c #DFE6E5",
"o c #DFE7E6",
"O c #E0E8E7",
"+ c #E0E9E8",
"@ c #E1E9E8",
"# c #E2EAE9",
"$ c #E5EDEC",
"% c #E6EEED",
"& c #E7EEEE",
"* c #EAF1F0",
"= c #EBF1F0",
"- c #EBF2F1",
"; c #ECF3F2",
": c #EEF4F3",
/* pixels */
"::::::::::::-%#OooO#%=::::::::::::",
"::::::::::*@..........#*::::::::::",
":::::::::$..............$:::::::::",
":::::::;@................#;:::::::",
":::::::#..................#:::::::",
"::::::$....................$::::::",
":::::*......................*:::::",
":::::#......................#:::::",
"::::=........................=::::",
"::::%........................&::::",
"::::#........................#::::",
"::::+........................O::::",
"::::o........................o::::",
"::::X........................X::::",
"::::+........................O::::",
"::::#........        ........#::::",
"::::%........................&::::",
"::::=........................=::::",
":::::#......................#:::::",
":::::*......................*:::::",
"::::::$....................$::::::",
":::::::#..................#:::::::",
":::::::;#................#;:::::::",
":::::::::$..............$:::::::::",
"::::::::::-#..........#*::::::::::",
"::::::::::::=&#OooO#&=::::::::::::"
};
