/* XPM */
static char *top_right_inactive[] = {
/* columns rows colors chars-per-pixel */
"8 38 7 1 ",
"  c None",
". c #EDF4F3",
"X c #EFF4F2",
"o c #EEF4F3",
"O c #EFF4F3",
"+ c #EEF5F3",
"@ c #EEF4F4",
/* pixels */
"@o.     ",
"oooo+   ",
"oooooO  ",
"oooooo+ ",
"ooooooo ",
"oooooooX",
"oooooooo",
"oooooooo",
"oooooooo",
"oooooooo",
"oooooooo",
"oooooooo",
"oooooooo",
"oooooooo",
"oooooooo",
"oooooooo",
"oooooooo",
"oooooooo",
"oooooooo",
"oooooooo",
"oooooooo",
"oooooooo",
"oooooooo",
"oooooooo",
"oooooooo",
"oooooooo",
"oooooooo",
"oooooooo",
"oooooooo",
"oooooooo",
"oooooooo",
"oooooooo",
"oooooooo",
"oooooooo",
"oooooooo",
"oooooooo",
"oooooooo",
"oooooooo"
};
