/* XPM */
static char *top_right_active[] = {
/* columns rows colors chars-per-pixel */
"8 38 5 1 ",
"  c None",
". c #F7FAF9",
"X c #F6FAFA",
"o c #F7FAFA",
"O c #F8FAFA",
/* pixels */
"..O     ",
"....X   ",
".....o  ",
"......X ",
"....... ",
".......O",
"........",
"........",
"........",
"........",
"........",
"........",
"........",
"........",
"........",
"........",
"........",
"........",
"........",
"........",
"........",
"........",
"........",
"........",
"........",
"........",
"........",
"........",
"........",
"........",
"........",
"........",
"........",
"........",
"........",
"........",
"........",
"........"
};
