/* XPM */
static char *top_left_active[] = {
/* columns rows colors chars-per-pixel */
"8 42 4 1 ",
"  c None",
". c #C9D7D5",
"X c #CAD6D5",
"o c #CAD7D5",
/* pixels */
"    .ooo",
"  oooooo",
" ooooooo",
" ooooooo",
"Xooooooo",
".ooooooo",
"oooooooo",
"oooooooo",
"oooooooo",
"oooooooo",
"oooooooo",
"oooooooo",
"oooooooo",
"oooooooo",
"oooooooo",
"oooooooo",
"oooooooo",
"oooooooo",
"oooooooo",
"oooooooo",
"oooooooo",
"oooooooo",
"oooooooo",
"oooooooo",
"oooooooo",
"oooooooo",
"oooooooo",
"oooooooo",
"oooooooo",
"oooooooo",
"oooooooo",
"oooooooo",
"oooooooo",
"oooooooo",
"oooooooo",
"oooooooo",
"oooooooo",
"oooooooo",
"oooooooo",
"oooooooo",
"oooooooo",
"oooooooo"
};
